<svg width="350" height="398" viewBox="0 0 350 398" fill="none" xmlns="http://www.w3.org/2000/svg">
<path d="M120.437 233.876L81.4831 367.879C80.8374 370.1 79.1361 371.859 76.9376 372.578L22.2401 390.47C14.9919 392.841 8.85179 384.689 13.1313 378.377L127.444 209.775L120.437 233.876Z" fill="#F4DD45"/>
<path d="M127.444 209.775L270.677 281.579L233.083 291.729L120.301 233.835L127.444 209.775Z" fill="#EFAC08"/>
<path d="M255.263 244.737L295.865 148.12L249.248 148.496L227.444 177.444L255.263 244.737Z" fill="#FCC101"/>
<path d="M186.842 77.0676L270.677 281.579L233.083 263.534L171.053 112.406L186.842 77.0676Z" fill="#FCC101"/>
<path d="M325.564 148.12L344.37 210.905C346.069 216.575 339.4 221.019 334.821 217.268L306.391 193.985L325.564 148.12Z" fill="#FFE97B"/>
<path d="M127.444 209.775L171.053 112.406L54.8873 39.0978L127.444 209.775Z" fill="#FFE97B"/>
<path d="M171.053 112.406L233.083 263.534L127.444 209.775L171.053 112.406Z" fill="#F4DD45"/>
<path d="M295.489 148.12H325.564L270.677 281.579L255.263 244.361L295.489 148.12Z" fill="#EFAC08"/>
<path d="M171.053 112.782L186.842 77.0677L51.3631 6.21775C47.2602 4.07206 42.6963 8.17473 44.3945 12.4822L54.8871 39.0978L171.053 112.782Z" fill="#F4DD45"/>
<path d="M120.301 233.835L233.083 291.729L93.2331 327.82L120.301 233.835Z" fill="#FCC101"/>
</svg>
